<svg width="8" height="6" viewBox="0 0 8 6" fill="none" xmlns="http://www.w3.org/2000/svg">
<g clip-path="url(#clip0_881_2093)">
<path d="M4.743 5.132L7.785 1.433C7.90882 1.29988 7.9845 1.12914 8 0.947998C8 0.670998 7.733 0.5 7.287 0.5L0.712 0.5C0.266 0.5 0 0.670999 0 0.946999C0.0152569 1.1279 0.0909939 1.2984 0.215 1.431L3.257 5.131C3.34393 5.24558 3.45619 5.33848 3.585 5.40245C3.71381 5.46641 3.85568 5.49969 3.9995 5.49969C4.14332 5.49969 4.28519 5.46641 4.414 5.40245C4.54281 5.33848 4.65507 5.24558 4.742 5.131L4.743 5.132Z" fill="#F6583E"/>
</g>
<defs>
<clipPath id="clip0_881_2093">
<rect width="8" height="5" fill="white" transform="translate(0 0.5)"/>
</clipPath>
</defs>
</svg>
