<svg xmlns="http://www.w3.org/2000/svg" width="51" height="60" viewBox="0 0 51 60">
    <defs>
        <linearGradient id="j3qtnxxjdb" x2="1" y1=".5" y2=".5" gradientUnits="objectBoundingBox">
            <stop offset="0" stop-color="#18a7f8"/>
            <stop offset="1" stop-color="#6c38ef"/>
        </linearGradient>
        <clipPath id="6l7b6zh7ya">
            <path fill="none" d="M568.749 179.545c0 2.15-2.136 3.892-4.769 3.892v.181a.71.71 0 0 1 .77.629v3.131a.71.71 0 0 1-.77.629v1.873a.71.71 0 0 1 .77.629v3.131a.71.71 0 0 1-.77.628v1.874a.71.71 0 0 1 .77.629v3.13a.71.71 0 0 1-.77.629v1.87a.71.71 0 0 1 .77.628v3.13a.71.71 0 0 1-.77.629v1.873a.71.71 0 0 1 .77.629v3.131a.71.71 0 0 1-.77.629v1.873a.71.71 0 0 1 .77.629v3.13a.71.71 0 0 1-.77.629v1.873a.71.71 0 0 1 .77.629v3.131a.71.71 0 0 1-.77.628v1.874a.71.71 0 0 1 .77.628v3.13a.71.71 0 0 1-.77.629v1.868a.71.71 0 0 1 .77.628v1.375c2.267.3 4 1.9 4 3.837h46.23v-60z" transform="translate(-563.98 -179.545)"/>
        </clipPath>
    </defs>
    <g>
        <g>
            <g clip-path="url(#6l7b6zh7ya)" transform="translate(-1) translate(1)">
                <rect width="204.003" height="59.999" fill="url(#j3qtnxxjdb)" rx="7.15" transform="translate(-153.002 0)"/>
            </g>
        </g>
        <g>
            <path fill="#fff" d="M603.875 207.591a.243.243 0 0 0-.063-.105.167.167 0 0 0 0-.034.26.26 0 0 0-.13-.159l-4.9-2.834-15.289-8.845-.052-.029a.245.245 0 0 0-.109-.028H573.895a.283.283 0 0 0-.043.009l-.019.006a.292.292 0 0 0-.047.025h-.008a.277.277 0 0 0-.043.04.276.276 0 0 0-.041.069l-.008.02a.265.265 0 0 0-.014.08v.035l.032.222.367 2.664 2.369 17.161a2.177 2.177 0 0 0 1.769.158 8.1 8.1 0 0 0 1.186-.544c.421-.241.617-.082.877.272.64.876 1.319 1.728 2.032 2.546.284.325.317.541.045.865-.358.425-.693.872-1.015 1.326a20.144 20.144 0 0 0-3.315 6.811l.508 3.679.041.293.025.177a.256.256 0 0 0 .061.128l.014.016a.25.25 0 0 0 .117.067h.025c.013 0 .024.007.037.007h9.43a.225.225 0 0 0 .074-.016.248.248 0 0 0 .067-.036l.015-.012a.257.257 0 0 0 .029-.022.222.222 0 0 0 .021-.037l1.169-1.811 14.082-21.789h.015v-.022l.1-.158a.254.254 0 0 0 .026-.195z" transform="translate(-1) translate(11.301 11.927) translate(-573.666 -195.557)"/>
            <path fill="#5e4bf1" d="M592.117 204.8c-2.462-.074-4.779.3-6.686 2.061a1.542 1.542 0 0 1-.97.309c-1.3 0-2.594-.055-4.119-.1-.22.18-.68.407-.873.775-.108.207.175.679.371.973a9.815 9.815 0 0 0 1.049 1.311c.459.483.475.89-.113 1.241a.79.79 0 0 0-.244 1.3c.685.938 1.365 1.886 2.127 2.76.81.929.948.921 1.933.21.37-.267.582-.186.832.13.446.562.911 1.107 1.371 1.657.524.629 1.018.62 1.478-.068a2.391 2.391 0 0 0 .314-.872c.221-1.144.4-2.3.632-3.436a1.326 1.326 0 0 1 .434-.775 8.826 8.826 0 0 0 3.51-6.2c.151-.924-.116-1.249-1.046-1.276zm-3.328 5.258a1.3 1.3 0 0 1-1.533-1.142 1.318 1.318 0 0 1 1.135-1.543 1.378 1.378 0 0 1 1.523 1.181 1.36 1.36 0 0 1-1.125 1.503z" transform="translate(-1) translate(11.301 11.927) translate(-572.681 -193.982)"/>
        </g>
    </g>
</svg>
