<svg xmlns="http://www.w3.org/2000/svg" width="141" height="60" viewBox="0 0 141 60">
    <defs>
        <linearGradient id="jw1m6lezub" x2="1" y1=".5" y2=".5" gradientUnits="objectBoundingBox">
            <stop offset="0" stop-color="#18a7f8"/>
            <stop offset="1" stop-color="#6c38ef"/>
        </linearGradient>
        <clipPath id="ie0n2d4l5a">
            <path fill="none" d="M541.74 234.332a.6.6 0 0 1 .571-.628v-1.874a.6.6 0 0 1-.571-.629v-3.13a.6.6 0 0 1 .571-.628v-1.874a.6.6 0 0 1-.571-.628v-3.131a.6.6 0 0 1 .571-.629v-1.873a.6.6 0 0 1-.571-.629v-3.13a.6.6 0 0 1 .571-.629v-1.873a.6.6 0 0 1-.571-.629v-3.131a.6.6 0 0 1 .571-.629v-1.873a.6.6 0 0 1-.571-.629v-3.13a.6.6 0 0 1 .571-.628v-1.874a.6.6 0 0 1-.571-.629v-3.13a.6.6 0 0 1 .571-.629v-1.874a.6.6 0 0 1-.571-.628v-3.131a.6.6 0 0 1 .571-.629v-1.873a.6.6 0 0 1-.571-.629v-3.13a.6.6 0 0 1 .571-.629v-.181a3.726 3.726 0 0 1-3.536-3.892H401.311v60h137.464a3.8 3.8 0 0 1 2.965-3.837z" transform="translate(-401.311 -179.545)"/>
        </clipPath>
    </defs>
    <g clip-path="url(#ie0n2d4l5a)">
        <rect width="178.817" height="59.999" fill="url(#jw1m6lezub)" rx="7.404" transform="translate(0 0)"/>
    </g>
    <text fill="#fff" font-family="Montserrat-Medium, Montserrat" font-size="24px" font-weight="500" letter-spacing="0.03em" transform="translate(26.888 44.509)">
        <tspan x="0" y="0">START</tspan>
    </text>
    <text fill="#fff" font-family="Montserrat-Light, Montserrat" font-size="9px" font-weight="300" letter-spacing="0.09em" transform="translate(21.892 18)">
        <tspan x="0" y="0">DIVISION WORLD</tspan>
    </text>
</svg>
