<svg xmlns="http://www.w3.org/2000/svg" width="58" height="80" viewBox="0 0 58 80">
    <defs>
        <linearGradient id="rulu0rormb" x2="1" y1=".5" y2=".5" gradientUnits="objectBoundingBox">
            <stop offset="0" stop-color="#18a7f8"/>
            <stop offset="1" stop-color="#6c38ef"/>
        </linearGradient>
        <clipPath id="equ99ymrea">
            <path fill="none" d="M569.4 179.545a5.31 5.31 0 0 1-5.424 5.189v.242a.858.858 0 0 1 .876.838v4.174a.858.858 0 0 1-.876.838v2.5a.858.858 0 0 1 .876.838v4.174a.857.857 0 0 1-.876.837v2.5a.858.858 0 0 1 .876.838v4.173a.858.858 0 0 1-.876.838v2.5a.857.857 0 0 1 .876.837v4.174a.858.858 0 0 1-.876.838v2.5a.858.858 0 0 1 .876.838v4.174a.858.858 0 0 1-.876.838v2.5a.858.858 0 0 1 .876.838v4.174a.858.858 0 0 1-.876.838v2.5a.858.858 0 0 1 .876.838v4.174a.857.857 0 0 1-.876.837v2.5a.857.857 0 0 1 .876.837v4.174a.858.858 0 0 1-.876.838v2.5a.857.857 0 0 1 .876.837v1.834a5.262 5.262 0 0 1 4.548 5.116h52.58v-80z" transform="translate(-563.98 -179.545)"/>
        </clipPath>
    </defs>
    <g>
        <g>
            <g clip-path="url(#equ99ymrea)" transform="translate(-609.567 -179.545) translate(609.567 179.545)">
                <rect width="232.003" height="79.999" fill="url(#rulu0rormb)" rx="7.15" transform="translate(-174.003 0)"/>
            </g>
        </g>
        <g>
            <path fill="#fff" d="M608.416 209.4a.28.28 0 0 0-.073-.121.191.191 0 0 0 0-.039.3.3 0 0 0-.149-.183l-5.636-3.26-17.588-10.174-.059-.034a.282.282 0 0 0-.125-.032h-10.86a.327.327 0 0 0-.05.011l-.022.007a.338.338 0 0 0-.054.028l-.01.005a.319.319 0 0 0-.05.046.318.318 0 0 0-.047.079l-.009.023a.305.305 0 0 0-.016.092v.04l.036.256.423 3.065 2.725 19.741a2.5 2.5 0 0 0 2.034.182 9.322 9.322 0 0 0 1.364-.626c.485-.277.71-.094 1.009.312.737 1.007 1.517 1.987 2.337 2.929.327.374.365.622.051 1-.412.489-.8 1-1.167 1.526-1.622 2.285-3.4 5.521-3.813 7.835l.584 4.232.047.337.028.2a.3.3 0 0 0 .07.147l.016.019a.287.287 0 0 0 .135.077l.011.005h.019c.015 0 .028.008.043.008h10.847a.259.259 0 0 0 .085-.019.286.286 0 0 0 .077-.042l.017-.013a.3.3 0 0 0 .034-.026.261.261 0 0 0 .024-.043l1.345-2.083 16.2-25.065h.017v-.026l.117-.182a.292.292 0 0 0 .033-.234z" transform="translate(-609.567 -179.545) translate(622.205 198.755) translate(-573.666 -195.557)"/>
            <path fill="#5e4bf1" d="M594.022 204.8c-2.832-.085-5.5.345-7.691 2.371a1.774 1.774 0 0 1-1.116.355c-1.492 0-2.984-.063-4.738-.11-.253.207-.782.469-1 .891-.124.238.2.781.427 1.119a11.287 11.287 0 0 0 1.206 1.508c.528.556.547 1.023-.131 1.427a.909.909 0 0 0-.28 1.492c.788 1.078 1.57 2.169 2.447 3.175.932 1.069 1.091 1.06 2.223.241.425-.307.669-.214.957.149.513.646 1.048 1.274 1.577 1.907.6.723 1.171.714 1.7-.078a2.749 2.749 0 0 0 .361-1c.254-1.316.456-2.64.727-3.952a1.525 1.525 0 0 1 .5-.891 10.153 10.153 0 0 0 4.038-7.131c.171-1.067-.138-1.44-1.207-1.473zm-3.828 6.048a1.493 1.493 0 0 1-1.764-1.314 1.516 1.516 0 0 1 1.306-1.775 1.585 1.585 0 0 1 1.752 1.359 1.564 1.564 0 0 1-1.294 1.731z" transform="translate(-609.567 -179.545) translate(622.205 198.755) translate(-571.664 -192.358)"/>
        </g>
    </g>
</svg>
