<svg xmlns="http://www.w3.org/2000/svg" width="175" height="70" viewBox="0 0 175 70">
    <defs>
        <linearGradient id="5yacw1za1b" x2="1" y1=".5" y2=".5" gradientUnits="objectBoundingBox">
            <stop offset="0" stop-color="#18a7f8"/>
            <stop offset="1" stop-color="#6c38ef"/>
        </linearGradient>
        <clipPath id="uq10kmjr8a">
            <path fill="none" d="M575.6 243.464a.72.72 0 0 1 .709-.732v-2.187a.721.721 0 0 1-.709-.733v-3.652a.721.721 0 0 1 .709-.732v-2.188a.721.721 0 0 1-.709-.732v-3.652a.721.721 0 0 1 .709-.733v-2.186a.721.721 0 0 1-.709-.733v-3.652a.721.721 0 0 1 .709-.733v-2.186a.721.721 0 0 1-.709-.733v-3.652a.721.721 0 0 1 .709-.733v-2.186a.721.721 0 0 1-.709-.733v-3.652a.72.72 0 0 1 .709-.732v-2.187a.721.721 0 0 1-.709-.733v-3.651a.721.721 0 0 1 .709-.733v-2.187a.721.721 0 0 1-.709-.732v-3.652a.721.721 0 0 1 .709-.733v-2.186a.721.721 0 0 1-.709-.733v-3.655a.721.721 0 0 1 .709-.733v-.211a4.466 4.466 0 0 1-4.389-4.54H401.311v70h170.611a4.5 4.5 0 0 1 3.68-4.477z" transform="translate(-401.311 -179.545)"/>
        </clipPath>
    </defs>
    <g clip-path="url(#uq10kmjr8a)">
        <rect width="221.936" height="69.999" fill="url(#5yacw1za1b)" rx="7.404" transform="translate(0 0)"/>
    </g>
    <text fill="#fff" font-family="Montserrat-Medium, Montserrat" font-size="30px" font-weight="500" letter-spacing="0.03em" transform="translate(38.382 52.606)">
        <tspan x="0" y="0">START</tspan>
    </text>
    <text fill="#fff" font-family="Montserrat-Light, Montserrat" font-size="11px" font-weight="300" letter-spacing="0.09em" transform="translate(31.453 22.164)">
        <tspan x="0" y="0">DIVISION WORLD</tspan>
    </text>
</svg>
