<svg xmlns="http://www.w3.org/2000/svg" width="149" height="60" viewBox="0 0 149 60">
    <defs>
        <linearGradient id="ws2c68m6ob" x2="1" y1=".5" y2=".5" gradientUnits="objectBoundingBox">
            <stop offset="0" stop-color="#18a7f8"/>
            <stop offset="1" stop-color="#6c38ef"/>
        </linearGradient>
        <clipPath id="82xup6rhva">
            <path fill="none" d="M549.707 234.332a.616.616 0 0 1 .6-.628v-1.874a.616.616 0 0 1-.6-.629v-3.13a.616.616 0 0 1 .6-.628v-1.874a.616.616 0 0 1-.6-.628v-3.131a.616.616 0 0 1 .6-.629v-1.873a.616.616 0 0 1-.6-.629v-3.13a.616.616 0 0 1 .6-.629v-1.873a.616.616 0 0 1-.6-.629v-3.131a.616.616 0 0 1 .6-.629v-1.873a.616.616 0 0 1-.6-.629v-3.13a.616.616 0 0 1 .6-.628v-1.874a.616.616 0 0 1-.6-.629v-3.13a.616.616 0 0 1 .6-.629v-1.874a.616.616 0 0 1-.6-.628v-3.131a.616.616 0 0 1 .6-.629v-1.873a.616.616 0 0 1-.6-.629v-3.131a.616.616 0 0 1 .6-.629v-.181a3.816 3.816 0 0 1-3.737-3.892H401.311v60h145.263a3.847 3.847 0 0 1 3.133-3.837z" transform="translate(-401.311 -179.545)"/>
        </clipPath>
    </defs>
    <g clip-path="url(#82xup6rhva)">
        <rect width="188.963" height="59.999" fill="url(#ws2c68m6ob)" rx="7.404" transform="translate(0 0)"/>
    </g>
    <text fill="#fff" font-family="Montserrat-Medium, Montserrat" font-size="26px" font-weight="500" letter-spacing="0.03em" transform="translate(31.787 44.668)">
        <tspan x="0" y="0">START</tspan>
    </text>
    <text fill="#fff" font-family="Montserrat-Light, Montserrat" font-size="9px" font-weight="300" letter-spacing="0.09em" transform="translate(25.996 18.539)">
        <tspan x="0" y="0">DIVISION WORLD</tspan>
    </text>
</svg>
