<svg xmlns="http://www.w3.org/2000/svg" width="18" height="18.032" viewBox="0 0 18 18.032">
    <g>
        <path fill="#6c38ef" d="M15.084 0H2.916A2.916 2.916 0 0 0 0 2.916v12.168A2.916 2.916 0 0 0 2.916 18h12.168A2.916 2.916 0 0 0 18 15.084V2.916A2.916 2.916 0 0 0 15.084 0zm0 0" transform="translate(0 -1) translate(0 1)"/>
        <path fill="#fff" d="M87.846 135.724a.951.951 0 0 1-.66-.268l-2.515-2.426a.992.992 0 0 1-.037-1.384.947.947 0 0 1 1.358-.038l1.8 1.736 2.906-3.295a.948.948 0 0 1 1.356-.074.992.992 0 0 1 .072 1.383L88.56 135.4a.953.953 0 0 1-.675.324zm0 0" transform="translate(0 -1) translate(-79.371 -122.724)"/>
        <path d="M12.336 0h-9.19A2.951 2.951 0 0 0 0 2.954V15.28c0 1.631 1.538 2.82 3.615 2.75h4.317c-3.5-3.59-2.825-8.922.433-12.608C13.15.293 12.336 0 12.336 0zm0 0" opacity="0.2" transform="translate(0 -1) translate(0 1)"/>
    </g>
</svg>
