<svg width="19" height="14" viewBox="0 0 19 14" fill="none" xmlns="http://www.w3.org/2000/svg">
<path d="M4.45954 11.2024C3.86249 10.7638 3.29299 10.3715 2.74646 9.94683C1.80036 9.20829 0.955306 8.3682 0.188325 7.44041C-0.0459028 7.15884 -0.0642736 6.8588 0.156176 6.59108C1.81414 4.60625 3.74767 2.97684 6.14965 1.97057C8.51489 0.978157 10.8618 1.06586 13.1811 2.11828C13.3372 2.19214 13.4199 2.16444 13.5301 2.04904C14.1364 1.43051 14.7472 0.821217 15.358 0.207303C15.5417 0.0226673 15.7576 -0.0465711 16.0102 0.0318991C16.2444 0.101137 16.3914 0.26731 16.4419 0.50272C16.497 0.76121 16.396 0.964309 16.2169 1.14433C15.381 1.97981 14.5451 2.8199 13.7138 3.65999C10.3795 7.01574 7.04063 10.3715 3.69715 13.718C3.57774 13.838 3.4124 13.9396 3.25166 13.9811C2.98528 14.0504 2.7189 13.8888 2.59949 13.6442C2.47549 13.3949 2.51682 13.1133 2.73268 12.8964C3.24706 12.3748 3.76604 11.8532 4.28501 11.3362C4.33553 11.2901 4.39983 11.2531 4.45954 11.2024ZM11.1833 4.34776C10.1361 3.56767 8.35874 3.5769 7.19219 4.82319C6.03943 6.05564 6.16802 7.79583 6.8707 8.67746C8.30822 7.23731 9.74574 5.79253 11.1833 4.34776Z" fill="#A0A0A0"/>
<path d="M6.93042 12.2925C6.97635 12.2371 7.01309 12.1909 7.05442 12.154C7.68822 11.517 8.32201 10.88 8.96039 10.243C9.01551 10.1922 9.11195 10.1415 9.17625 10.1507C10.3198 10.3307 11.8584 9.67527 12.4508 8.13818C12.63 7.66736 12.7126 7.18269 12.6391 6.67494C12.63 6.61493 12.6575 6.52723 12.6989 6.48569C13.6633 5.50712 14.6324 4.53317 15.6244 3.53613C15.9 3.75308 16.1801 3.9608 16.4465 4.18236C17.3099 4.89321 18.0999 5.68252 18.8117 6.54569C19.046 6.83188 19.0643 7.13653 18.8301 7.41348C17.1492 9.41678 15.1973 11.0647 12.7586 12.0571C10.8801 12.8233 8.96499 12.9387 7.01768 12.3248C6.99472 12.3202 6.97175 12.3109 6.93042 12.2925Z" fill="#A0A0A0"/>
</svg>
