<svg width="37" height="35" viewBox="0 0 37 35" fill="none" xmlns="http://www.w3.org/2000/svg">
<path d="M18.4898 0.513901C23.1612 0.513901 27.8326 0.507892 32.5039 0.513901C34.6512 0.519911 36.314 2.2566 36.2183 4.38991C36.1764 5.32136 35.8116 6.11459 35.1895 6.79965C31.2957 11.0963 27.4139 15.399 23.5141 19.6836C23.1971 20.0322 23.0595 20.3687 23.0655 20.8494C23.0894 23.0368 23.0715 25.2242 23.0834 27.4176C23.0894 27.9705 22.898 28.3971 22.4674 28.7397C20.344 30.4343 18.2326 32.141 16.1093 33.8416C15.5291 34.3043 14.925 34.3464 14.4106 33.9618C14.0039 33.6613 13.8603 33.2347 13.8603 32.7359C13.8663 28.7577 13.8544 24.7795 13.8723 20.8014C13.8723 20.3567 13.7467 20.0382 13.4476 19.7077C9.54186 15.417 5.64208 11.1143 1.74827 6.79965C0.671644 5.6098 0.384543 4.23367 1.03052 2.74937C1.68248 1.25305 2.89667 0.52592 4.5176 0.519911C9.177 0.507892 13.8364 0.513901 18.4898 0.513901Z" fill="#9F52FF"/>
</svg>
