<?xml version="1.0" encoding="UTF-8"?>
<!DOCTYPE svg PUBLIC "-//W3C//DTD SVG 1.1//EN" "http://www.w3.org/Graphics/SVG/1.1/DTD/svg11.dtd">
<svg xmlns="http://www.w3.org/2000/svg" version="1.1" width="1000px" height="1000px" style="shape-rendering:geometricPrecision; text-rendering:geometricPrecision; image-rendering:optimizeQuality; fill-rule:evenodd; clip-rule:evenodd" xmlns:xlink="http://www.w3.org/1999/xlink">
<g><path style="opacity:0.999" fill="#0052ff" d="M 468.5,-0.5 C 489.167,-0.5 509.833,-0.5 530.5,-0.5C 664.865,10.2699 778.031,64.6033 870,162.5C 947.417,249.704 990.583,351.704 999.5,468.5C 999.5,489.167 999.5,509.833 999.5,530.5C 988.73,664.865 934.397,778.031 836.5,870C 749.296,947.417 647.296,990.583 530.5,999.5C 509.833,999.5 489.167,999.5 468.5,999.5C 334.135,988.73 220.969,934.397 129,836.5C 51.5832,749.296 8.41657,647.296 -0.5,530.5C -0.5,509.833 -0.5,489.167 -0.5,468.5C 10.2699,334.135 64.6033,220.969 162.5,129C 249.704,51.5832 351.704,8.41657 468.5,-0.5 Z"/></g>
<g><path style="opacity:1" fill="#fefeff" d="M 475.5,149.5 C 604.552,145.287 707.719,194.287 785,296.5C 853.492,398.293 867.492,507.293 827,623.5C 781.066,736.24 699.232,808.407 581.5,840C 452.932,866.579 341.765,834.413 248,743.5C 170.886,659.813 139.219,561.146 153,447.5C 175.212,324.834 242.045,236.001 353.5,181C 392.566,163.827 433.233,153.327 475.5,149.5 Z"/></g>
<g><path style="opacity:1" fill="#0352ff" d="M 404.5,386.5 C 467.834,386.333 531.168,386.5 594.5,387C 603,390.167 608.833,396 612,404.5C 612.667,467.833 612.667,531.167 612,594.5C 608.765,603.401 602.598,609.234 593.5,612C 530.5,612.667 467.5,612.667 404.5,612C 395.599,608.765 389.766,602.598 387,593.5C 386.333,530.5 386.333,467.5 387,404.5C 390.353,395.982 396.186,389.982 404.5,386.5 Z"/></g>
</svg>
