<svg xmlns="http://www.w3.org/2000/svg" width="16" height="16" viewBox="0 0 16 16">
    <g>
        <path fill="#4ef3a3" d="M13.408 0H2.592A2.592 2.592 0 0 0 0 2.592v10.816A2.592 2.592 0 0 0 2.592 16h10.816A2.592 2.592 0 0 0 16 13.408V2.592A2.592 2.592 0 0 0 13.408 0zm0 0" transform="translate(0 -0.032) translate(0 0.032)"/>
        <path fill="#181721" d="M87.846 135.724a.951.951 0 0 1-.66-.268l-2.515-2.426a.992.992 0 0 1-.037-1.384.947.947 0 0 1 1.358-.038l1.8 1.736 2.906-3.295a.948.948 0 0 1 1.356-.074.992.992 0 0 1 .072 1.383L88.56 135.4a.953.953 0 0 1-.675.324zm0 0" transform="translate(0 -0.032) translate(-80.371 -124.692)"/>
    </g>
</svg>
