<svg width="21" height="13" viewBox="0 0 21 13" fill="none" xmlns="http://www.w3.org/2000/svg">
<path d="M10.6679 0.69043C14.567 0.856938 17.7122 2.58678 19.8722 6.04646C20.0387 6.31472 20.0433 6.57373 19.8814 6.842C18.1146 9.72815 15.5661 11.5042 12.2313 12.0593C7.82341 12.7947 3.45256 10.7179 1.15844 6.879C0.98268 6.58761 0.973429 6.32397 1.15381 6.02796C2.95303 3.12331 5.53854 1.39347 8.90572 0.833812C9.0861 0.801435 9.27111 0.778309 9.45612 0.764434C9.80764 0.736682 10.1638 0.718181 10.6679 0.69043ZM6.55147 6.45348C6.55147 8.63197 8.31831 10.4081 10.4968 10.4127C12.6845 10.4173 14.4653 8.64584 14.4653 6.4581C14.4653 4.27962 12.6984 2.50352 10.5199 2.4989C8.33219 2.49427 6.55147 4.26574 6.55147 6.45348Z" fill="#A0A0A0"/>
<path d="M13.1979 6.45387C13.1979 7.93857 11.9954 9.14576 10.5107 9.15038C9.02596 9.15038 7.81877 7.94782 7.81415 6.46312C7.81415 4.97841 9.01671 3.77123 10.5014 3.7666C11.9907 3.7666 13.1979 4.96916 13.1979 6.45387Z" fill="#A0A0A0"/>
</svg>
