<svg width="23" height="23" viewBox="0 0 23 23" fill="none" xmlns="http://www.w3.org/2000/svg">
<path d="M5.03118 3.59375C5.03118 3.40313 4.95546 3.22031 4.82066 3.08552C4.68587 2.95073 4.50306 2.875 4.31243 2.875C4.12181 2.875 3.93899 2.95073 3.8042 3.08552C3.66941 3.22031 3.59368 3.40313 3.59368 3.59375V16.2337L1.94631 14.5849C1.81134 14.4499 1.6283 14.3741 1.43743 14.3741C1.24657 14.3741 1.06352 14.4499 0.928556 14.5849C0.793594 14.7198 0.717773 14.9029 0.717773 15.0938C0.717773 15.2846 0.793594 15.4677 0.928556 15.6026L3.80356 18.4762L3.81362 18.4862C3.94857 18.6178 4.13004 18.6908 4.31852 18.6892C4.507 18.6875 4.6872 18.6115 4.81987 18.4776L7.69487 15.6026C7.7617 15.5359 7.81472 15.4567 7.85093 15.3694C7.88713 15.2822 7.9058 15.1887 7.90586 15.0943C7.90593 14.9998 7.88739 14.9063 7.85131 14.819C7.81524 14.7317 7.76232 14.6524 7.69559 14.5856C7.62886 14.5188 7.54961 14.4657 7.46239 14.4295C7.37516 14.3933 7.28166 14.3747 7.18722 14.3746C7.09278 14.3745 6.99925 14.3931 6.91198 14.4291C6.8247 14.4652 6.74538 14.5181 6.67856 14.5849L5.03118 16.2337V3.59375ZM10.0624 5.03125C10.0624 4.84063 10.1382 4.65781 10.2729 4.52302C10.4077 4.38823 10.5906 4.3125 10.7812 4.3125H20.8437C21.0343 4.3125 21.2171 4.38823 21.3519 4.52302C21.4867 4.65781 21.5624 4.84063 21.5624 5.03125C21.5624 5.22187 21.4867 5.40469 21.3519 5.53948C21.2171 5.67427 21.0343 5.75 20.8437 5.75H10.7812C10.5906 5.75 10.4077 5.67427 10.2729 5.53948C10.1382 5.40469 10.0624 5.22187 10.0624 5.03125ZM10.7812 8.625C10.5906 8.625 10.4077 8.70073 10.2729 8.83552C10.1382 8.97031 10.0624 9.15313 10.0624 9.34375C10.0624 9.53437 10.1382 9.71719 10.2729 9.85198C10.4077 9.98677 10.5906 10.0625 10.7812 10.0625H17.9687C18.1593 10.0625 18.3421 9.98677 18.4769 9.85198C18.6117 9.71719 18.6874 9.53437 18.6874 9.34375C18.6874 9.15313 18.6117 8.97031 18.4769 8.83552C18.3421 8.70073 18.1593 8.625 17.9687 8.625H10.7812ZM10.7812 12.9375C10.5906 12.9375 10.4077 13.0132 10.2729 13.148C10.1382 13.2828 10.0624 13.4656 10.0624 13.6562C10.0624 13.8469 10.1382 14.0297 10.2729 14.1645C10.4077 14.2993 10.5906 14.375 10.7812 14.375H15.0937C15.2843 14.375 15.4671 14.2993 15.6019 14.1645C15.7367 14.0297 15.8124 13.8469 15.8124 13.6562C15.8124 13.4656 15.7367 13.2828 15.6019 13.148C15.4671 13.0132 15.2843 12.9375 15.0937 12.9375H10.7812ZM10.7812 17.25C10.5906 17.25 10.4077 17.3257 10.2729 17.4605C10.1382 17.5953 10.0624 17.7781 10.0624 17.9688C10.0624 18.1594 10.1382 18.3422 10.2729 18.477C10.4077 18.6118 10.5906 18.6875 10.7812 18.6875H12.2187C12.4093 18.6875 12.5921 18.6118 12.7269 18.477C12.8617 18.3422 12.9374 18.1594 12.9374 17.9688C12.9374 17.7781 12.8617 17.5953 12.7269 17.4605C12.5921 17.3257 12.4093 17.25 12.2187 17.25H10.7812Z" fill="white"/>
</svg>
