<svg width="23" height="24" viewBox="0 0 23 24" fill="none" xmlns="http://www.w3.org/2000/svg">
	<path d="M5.03118 5.53125C5.03118 5.34063 4.95546 5.15781 4.82066 5.02302C4.68587 4.88823 4.50306 4.8125 4.31243 4.8125C4.12181 4.8125 3.93899 4.88823 3.8042 5.02302C3.66941 5.15781 3.59368 5.34063 3.59368 5.53125V18.1712L1.94631 16.5224C1.87948 16.4555 1.80015 16.4025 1.71283 16.3664C1.62552 16.3302 1.53194 16.3116 1.43743 16.3116C1.34292 16.3116 1.24934 16.3302 1.16203 16.3664C1.07472 16.4025 0.995383 16.4555 0.928556 16.5224C0.86173 16.5892 0.80872 16.6685 0.772554 16.7558C0.736388 16.8432 0.717773 16.9367 0.717773 17.0312C0.717773 17.1258 0.736388 17.2193 0.772554 17.3067C0.80872 17.394 0.86173 17.4733 0.928556 17.5401L3.80356 20.4137L3.81362 20.4237C3.94857 20.5553 4.13004 20.6283 4.31852 20.6267C4.507 20.625 4.6872 20.549 4.81987 20.4151L7.69487 17.5401C7.82983 17.4054 7.90573 17.2225 7.90586 17.0318C7.906 16.841 7.83036 16.6581 7.69559 16.5231C7.56082 16.3881 7.37795 16.3122 7.18722 16.3121C6.99649 16.312 6.81352 16.3876 6.67856 16.5224L5.03118 18.1712V5.53125ZM10.7812 6.25C10.5906 6.25 10.4077 6.17427 10.2729 6.03948C10.1382 5.90469 10.0624 5.72187 10.0624 5.53125C10.0624 5.34063 10.1382 5.15781 10.2729 5.02302C10.4077 4.88823 10.5906 4.8125 10.7812 4.8125H12.2187C12.4093 4.8125 12.5921 4.88823 12.7269 5.02302C12.8617 5.15781 12.9374 5.34063 12.9374 5.53125C12.9374 5.72187 12.8617 5.90469 12.7269 6.03948C12.5921 6.17427 12.4093 6.25 12.2187 6.25H10.7812ZM10.7812 10.5625C10.5906 10.5625 10.4077 10.4868 10.2729 10.352C10.1382 10.2172 10.0624 10.0344 10.0624 9.84375C10.0624 9.65313 10.1382 9.47031 10.2729 9.33552C10.4077 9.20073 10.5906 9.125 10.7812 9.125H15.0937C15.2843 9.125 15.4671 9.20073 15.6019 9.33552C15.7367 9.47031 15.8124 9.65313 15.8124 9.84375C15.8124 10.0344 15.7367 10.2172 15.6019 10.352C15.4671 10.4868 15.2843 10.5625 15.0937 10.5625H10.7812ZM10.7812 14.875C10.5906 14.875 10.4077 14.7993 10.2729 14.6645C10.1382 14.5297 10.0624 14.3469 10.0624 14.1562C10.0624 13.9656 10.1382 13.7828 10.2729 13.648C10.4077 13.5132 10.5906 13.4375 10.7812 13.4375H17.9687C18.1593 13.4375 18.3421 13.5132 18.4769 13.648C18.6117 13.7828 18.6874 13.9656 18.6874 14.1562C18.6874 14.3469 18.6117 14.5297 18.4769 14.6645C18.3421 14.7993 18.1593 14.875 17.9687 14.875H10.7812ZM10.0624 18.4688C10.0624 18.6594 10.1382 18.8422 10.2729 18.977C10.4077 19.1118 10.5906 19.1875 10.7812 19.1875H20.8437C21.0343 19.1875 21.2171 19.1118 21.3519 18.977C21.4867 18.8422 21.5624 18.6594 21.5624 18.4688C21.5624 18.2781 21.4867 18.0953 21.3519 17.9605C21.2171 17.8257 21.0343 17.75 20.8437 17.75H10.7812C10.5906 17.75 10.4077 17.8257 10.2729 17.9605C10.1382 18.0953 10.0624 18.2781 10.0624 18.4688Z" fill="white" />
</svg>
