<svg width="23" height="23" viewBox="0 0 23 23" fill="none" xmlns="http://www.w3.org/2000/svg">
	<path d="M5.03118 5.03125C5.03118 4.84063 4.95546 4.65781 4.82066 4.52302C4.68587 4.38823 4.50306 4.3125 4.31243 4.3125C4.12181 4.3125 3.93899 4.38823 3.8042 4.52302C3.66941 4.65781 3.59368 4.84063 3.59368 5.03125V17.6712L1.94631 16.0224C1.87948 15.9555 1.80015 15.9025 1.71283 15.8664C1.62552 15.8302 1.53194 15.8116 1.43743 15.8116C1.34292 15.8116 1.24934 15.8302 1.16203 15.8664C1.07472 15.9025 0.995383 15.9555 0.928556 16.0224C0.86173 16.0892 0.80872 16.1685 0.772554 16.2558C0.736388 16.3432 0.717773 16.4367 0.717773 16.5312C0.717773 16.6258 0.736388 16.7193 0.772554 16.8067C0.80872 16.894 0.86173 16.9733 0.928556 17.0401L3.80356 19.9137L3.81362 19.9237C3.94857 20.0553 4.13004 20.1283 4.31852 20.1267C4.507 20.125 4.6872 20.049 4.81987 19.9151L7.69487 17.0401C7.82983 16.9054 7.90573 16.7225 7.90586 16.5318C7.906 16.341 7.83036 16.1581 7.69559 16.0231C7.56082 15.8881 7.37795 15.8122 7.18722 15.8121C6.99649 15.812 6.81352 15.8876 6.67856 16.0224L5.03118 17.6712V5.03125ZM10.7812 5.75C10.5906 5.75 10.4077 5.67427 10.2729 5.53948C10.1382 5.40469 10.0624 5.22187 10.0624 5.03125C10.0624 4.84063 10.1382 4.65781 10.2729 4.52302C10.4077 4.38823 10.5906 4.3125 10.7812 4.3125H12.2187C12.4093 4.3125 12.5921 4.38823 12.7269 4.52302C12.8617 4.65781 12.9374 4.84063 12.9374 5.03125C12.9374 5.22187 12.8617 5.40469 12.7269 5.53948C12.5921 5.67427 12.4093 5.75 12.2187 5.75H10.7812ZM10.7812 10.0625C10.5906 10.0625 10.4077 9.98677 10.2729 9.85198C10.1382 9.71719 10.0624 9.53437 10.0624 9.34375C10.0624 9.15313 10.1382 8.97031 10.2729 8.83552C10.4077 8.70073 10.5906 8.625 10.7812 8.625H15.0937C15.2843 8.625 15.4671 8.70073 15.6019 8.83552C15.7367 8.97031 15.8124 9.15313 15.8124 9.34375C15.8124 9.53437 15.7367 9.71719 15.6019 9.85198C15.4671 9.98677 15.2843 10.0625 15.0937 10.0625H10.7812ZM10.7812 14.375C10.5906 14.375 10.4077 14.2993 10.2729 14.1645C10.1382 14.0297 10.0624 13.8469 10.0624 13.6562C10.0624 13.4656 10.1382 13.2828 10.2729 13.148C10.4077 13.0132 10.5906 12.9375 10.7812 12.9375H17.9687C18.1593 12.9375 18.3421 13.0132 18.4769 13.148C18.6117 13.2828 18.6874 13.4656 18.6874 13.6562C18.6874 13.8469 18.6117 14.0297 18.4769 14.1645C18.3421 14.2993 18.1593 14.375 17.9687 14.375H10.7812ZM10.0624 17.9688C10.0624 18.1594 10.1382 18.3422 10.2729 18.477C10.4077 18.6118 10.5906 18.6875 10.7812 18.6875H20.8437C21.0343 18.6875 21.2171 18.6118 21.3519 18.477C21.4867 18.3422 21.5624 18.1594 21.5624 17.9688C21.5624 17.7781 21.4867 17.5953 21.3519 17.4605C21.2171 17.3257 21.0343 17.25 20.8437 17.25H10.7812C10.5906 17.25 10.4077 17.3257 10.2729 17.4605C10.1382 17.5953 10.0624 17.7781 10.0624 17.9688Z" fill="white" />
</svg>
