<svg xmlns="http://www.w3.org/2000/svg" width="22" height="20" viewBox="0 0 22 20">
    <defs>
        <style>
            .cls-1{fill:#8483a7}
        </style>
    </defs>
    <g id="ic-kakao-talk" transform="translate(0 -1)">
        <path id="패스_18" d="M9.375 9.306l-.605 1.707h1.21z" class="cls-1" transform="translate(-0.708 -0.728)"/>
        <path id="패스_19" d="M11 1C4.925 1 0 4.825 0 9.544c0 3.051 2.059 5.728 5.156 7.238-1.191 4.045-1.222 4.063-1.02 4.181.253.146.581 0 4.911-3.01a14.188 14.188 0 0 0 1.953.135c6.075 0 11-3.825 11-8.544S17.075 1 11 1zM5.553 11.929a.635.635 0 0 1-1.269 0V8.215h-.99a.612.612 0 1 1 0-1.224h3.25a.612.612 0 1 1 0 1.224h-.99zm4.93.589c-.66 0-.538-.514-.842-1.086H7.705c-.3.568-.183 1.086-.842 1.086-.635 0-.747-.383-.554-.974l1.518-3.935a.954.954 0 0 1 .845-.617.954.954 0 0 1 .846.617c1.003 3.081 2.433 4.91.965 4.909zm3.611-.084h-2.036c-1.062 0-.416-1.423-.608-4.819a.648.648 0 0 1 1.3 0v3.672h1.348a.574.574 0 1 1 0 1.146zm4.967-.471a.621.621 0 0 1-.247.413c-.875.655-1.523-1.255-2.377-2.064l-.22.217v1.364a.635.635 0 0 1-1.27 0V7.616a.634.634 0 0 1 1.269 0v1.343c1.171-.871 1.82-2.427 2.559-1.7s-.777 1.34-1.4 2.2c1.47 2.011 1.75 2.061 1.685 2.5z" class="cls-1" transform="translate(0 0)"/>
    </g>
</svg>
