<svg xmlns="http://www.w3.org/2000/svg" id="ic-linkedin" width="20" height="20" viewBox="0 0 20 20">
    <defs>
        <style>
            .cls-1{fill:#8483a7}
        </style>
    </defs>
    <path id="패스_15" d="M21.863 21.742h.005v-7.593c0-3.714-.8-6.575-5.142-6.575a4.508 4.508 0 0 0-4.06 2.231h-.06V7.921H8.489v13.82h4.287V14.9c0-1.8.342-3.544 2.573-3.544 2.2 0 2.231 2.056 2.231 3.66v6.729z" class="cls-1" transform="translate(-1.868 -1.742)"/>
    <path id="패스_16" d="M.4 7.977h4.288V21.8H.4z" class="cls-1" transform="translate(-0.054 -1.798)"/>
    <path id="패스_17" d="M2.486 0a2.5 2.5 0 1 0 2.486 2.486A2.487 2.487 0 0 0 2.486 0z" class="cls-1"/>
</svg>
