<svg width="36" height="46" viewBox="0 0 36 46" fill="none" xmlns="http://www.w3.org/2000/svg">
<path d="M18 0.5C11.7968 0.5 6.75 5.54675 6.75 11.75V16.25H4.5C2.01825 16.25 0 18.2682 0 20.75V41C0 43.4818 2.01825 45.5 4.5 45.5H31.5C33.9818 45.5 36 43.4818 36 41V20.75C36 18.2682 33.9818 16.25 31.5 16.25H29.25V11.75C29.25 5.54675 24.2032 0.5 18 0.5ZM11.25 11.75C11.25 8.0285 14.2785 5 18 5C21.7215 5 24.75 8.0285 24.75 11.75V16.25H11.25V11.75ZM31.5045 41H20.25V35.8745C21.5888 35.0938 22.5 33.6582 22.5 32C22.5 29.5182 20.4818 27.5 18 27.5C15.5182 27.5 13.5 29.5182 13.5 32C13.5 33.656 14.4112 35.0938 15.75 35.8745V41H4.5V20.75H31.5L31.5045 41V41Z" fill="white"/>
</svg>
