<svg width="39" height="32" viewBox="0 0 39 32" fill="none" xmlns="http://www.w3.org/2000/svg">
<g clip-path="url(#clip0_400_1282)">
<rect width="38.25" height="32" rx="16" fill="white"/>
<g clip-path="url(#clip1_400_1282)">
<path fill-rule="evenodd" clip-rule="evenodd" d="M18.9318 -4.86365C7.40939 -4.86365 -1.93182 4.47757 -1.93182 16C-1.93182 27.5224 7.40939 36.8636 18.9318 36.8636C30.4542 36.8636 39.7954 27.5224 39.7954 16C39.7954 4.47757 30.4542 -4.86365 18.9318 -4.86365ZM20.8285 23.5868C20.8285 24.0898 20.6287 24.5722 20.273 24.9279C19.9173 25.2836 19.4348 25.4835 18.9318 25.4835C18.4288 25.4835 17.9463 25.2836 17.5906 24.9279C17.2349 24.5722 17.0351 24.0898 17.0351 23.5868V17.8967H11.345C10.842 17.8967 10.3596 17.6969 10.0039 17.3412C9.64817 16.9855 9.44834 16.503 9.44834 16C9.44834 15.497 9.64817 15.0145 10.0039 14.6588C10.3596 14.3031 10.842 14.1033 11.345 14.1033H17.0351V8.41321C17.0351 7.91018 17.2349 7.42775 17.5906 7.07205C17.9463 6.71635 18.4288 6.51652 18.9318 6.51652C19.4348 6.51652 19.9173 6.71635 20.273 7.07205C20.6287 7.42775 20.8285 7.91018 20.8285 8.41321V14.1033H26.5186C27.0216 14.1033 27.5041 14.3031 27.8598 14.6588C28.2155 15.0145 28.4153 15.497 28.4153 16C28.4153 16.503 28.2155 16.9855 27.8598 17.3412C27.5041 17.6969 27.0216 17.8967 26.5186 17.8967H20.8285V23.5868Z" fill="#F6583E"/>
</g>
</g>
<defs>
<clipPath id="clip0_400_1282">
<rect width="38.25" height="32" rx="16" fill="white"/>
</clipPath>
<clipPath id="clip1_400_1282">
<rect x="-1.93182" y="-4.86365" width="41.7273" height="41.7273" rx="15.4545" fill="white"/>
</clipPath>
</defs>
</svg>
