<svg width="45" height="42" viewBox="0 0 45 42" fill="none" xmlns="http://www.w3.org/2000/svg">
	<path d="M34.2859 0C42.8571 0 45 7.0266 45 10.5H40.7143C40.7143 4.7103 36.4285 4.2 34.2859 4.2C32.1428 4.2 27.8573 4.7103 27.8573 10.5V14.7H30.0001C32.3637 14.7 34.2859 16.5837 34.2859 18.9V37.8C34.2859 40.1163 32.3637 42 30.0001 42H4.28574C1.92215 42 0 40.1163 0 37.8V18.9C0 16.5837 1.92215 14.7 4.28574 14.7H23.5715V10.5C23.5715 7.0266 25.7146 0 34.2859 0ZM4.28145 37.8H15.0001V33.0162C13.7251 32.2875 12.8572 30.9477 12.8572 29.4C12.8572 27.0837 14.7794 25.2 17.1429 25.2C19.5065 25.2 21.4287 27.0837 21.4287 29.4C21.4287 30.9456 20.5608 32.2875 19.2858 33.0162V37.8H30.0001V18.9H4.28574L4.28145 37.8Z" fill="white" />
</svg>
