<svg xmlns="http://www.w3.org/2000/svg" width="14" height="16" viewBox="0 0 14 16">
    <path fill="#febf37" d="M-642.329 117.929a.111.111 0 0 0-.029-.046.1.1 0 0 0 0-.015.115.115 0 0 0-.061-.071l-9.353-5.169-.024-.013a.121.121 0 0 0-.05-.012h-4.401a.107.107 0 0 0-.022.011.107.107 0 0 0-.02.017.112.112 0 0 0-.019.031v.009a.11.11 0 0 0-.007.035.112.112 0 0 0 0 .016l.014.1 2.235 15.466.019.13.011.078a.113.113 0 0 0 .028.057l.007.007a.119.119 0 0 0 .054.029h.012a.129.129 0 0 0 .018 0h4.369a.121.121 0 0 0 .034-.007.109.109 0 0 0 .031-.016h.007a.118.118 0 0 0 .014-.01.107.107 0 0 0 .01-.017l7.052-10.439h.006v-.01l.048-.07a.109.109 0 0 0 .017-.091zm-8.146 5.146l-1.637 2.416-1.624-11.238 2.16 1.2zm.207-.306l-1.032-7.169 4.282 2.376zm.062.429l3.448-5.1h1.71l-4.859 7.169zm-1.419-8.082l-2.159-1.193-.15-1.04h1.987zm-.425 10.808l1.637-2.42.3 2.071-1.637 2.416zm5.3-8.114l-.021-.013-4.578-2.53-.332-2.295 8.717 4.838z" transform="translate(656.324 -112.602)"/>
</svg>
