<svg xmlns="http://www.w3.org/2000/svg" width="24" height="24" viewBox="0 0 24 24">
    <g transform="translate(-1256 -1094)">
        <circle cx="12" cy="12" r="12" fill="#8d8d8d" transform="translate(1256 1094)"/>
        <path fill="#fff" d="M9.107 4.107H6.071a.179.179 0 0 1-.179-.179V.893a.893.893 0 1 0-1.786 0v3.036a.179.179 0 0 1-.179.179H.893a.893.893 0 1 0 0 1.786h3.036a.179.179 0 0 1 .179.179v3.034a.893.893 0 0 0 1.786 0V6.071a.179.179 0 0 1 .179-.179h3.034a.893.893 0 0 0 0-1.786zm0 0" transform="translate(1263 1101)"/>
    </g>
</svg>
