<svg xmlns="http://www.w3.org/2000/svg" width="26" height="18" viewBox="0 0 26 18">
    <defs>
        <style>
            .cls-1{fill:#c7c7c7}
        </style>
    </defs>
    <g id="ic-email-2" transform="translate(0 -80)">
        <g id="그룹_3" transform="translate(17.046 83.236)">
            <g id="그룹_2">
                <path id="패스_20" d="M339.392 150.8l8.954 5.661V144.9z" class="cls-1" transform="translate(-339.392 -144.896)"/>
            </g>
        </g>
        <g id="그룹_5" transform="translate(0 83.236)">
            <g id="그룹_4">
                <path id="패스_21" d="M0 144.9v11.561l8.954-5.661z" class="cls-1" transform="translate(0 -144.896)"/>
            </g>
        </g>
        <g id="그룹_7" transform="translate(0.05 80)">
            <g id="그룹_6" transform="translate(0 0)">
                <path id="패스_22" d="M25.284 80H2.536A1.617 1.617 0 0 0 .96 81.413l12.95 8.717 12.95-8.717A1.617 1.617 0 0 0 25.284 80z" class="cls-1" transform="translate(-0.96 -80)"/>
            </g>
        </g>
        <g id="그룹_9" transform="translate(0.053 90.007)">
            <g id="그룹_8" transform="translate(0 0)">
                <path id="패스_23" d="M16.717 277.922l-2.3 1.547a.8.8 0 0 1-.894 0l-2.3-1.549-10.2 6.592a1.614 1.614 0 0 0 1.573 1.4h22.749a1.614 1.614 0 0 0 1.573-1.4z" class="cls-1" transform="translate(-1.024 -277.92)"/>
            </g>
        </g>
    </g>
</svg>
