<svg xmlns="http://www.w3.org/2000/svg" width="10" height="20" viewBox="0 0 10 20">
    <g>
        <path fill="#c7c7c7" d="M77.022 10.652h2.17v9.025a.321.321 0 0 0 .319.323h3.679a.321.321 0 0 0 .319-.323v-8.982H86a.321.321 0 0 0 .317-.286l.383-3.323a.325.325 0 0 0-.079-.252.318.318 0 0 0-.238-.108H83.51V4.644c0-.628.335-.946.995-.946h1.879a.321.321 0 0 0 .319-.323V.325A.321.321 0 0 0 86.384 0h-2.708a4.93 4.93 0 0 0-3.244 1.236A3.459 3.459 0 0 0 79.3 4.291v2.436h-2.278a.321.321 0 0 0-.319.323v3.28a.321.321 0 0 0 .319.322z" transform="translate(-76.703)"/>
    </g>
</svg>
