<svg xmlns="http://www.w3.org/2000/svg" width="25" height="20" viewBox="0 0 25 20">
    <g>
        <path fill="#c7c7c7" d="M25 50.368a10.817 10.817 0 0 1-2.953.8 5.033 5.033 0 0 0 2.253-2.793 10.34 10.34 0 0 1-3.25 1.222A5.174 5.174 0 0 0 17.308 48a5.1 5.1 0 0 0-5 6.2 14.583 14.583 0 0 1-10.567-5.28 5 5 0 0 0 1.575 6.745A5.122 5.122 0 0 1 1 55.043v.057a5.09 5.09 0 0 0 4.106 4.958 5.191 5.191 0 0 1-1.344.166 4.6 4.6 0 0 1-.97-.086 5.164 5.164 0 0 0 4.789 3.515A10.4 10.4 0 0 1 1.227 65.8 9.751 9.751 0 0 1 0 65.735 14.593 14.593 0 0 0 7.862 68 14.369 14.369 0 0 0 22.45 53.64c0-.223-.008-.438-.019-.652A10.139 10.139 0 0 0 25 50.368z" transform="translate(0 -48) translate(0 0)"/>
    </g>
</svg>
