<svg xmlns="http://www.w3.org/2000/svg" width="38" height="38" viewBox="0 0 38 38">
    <defs>
        <linearGradient id="hs6qmu6wga" x1=".5" x2=".5" y1=".063" y2=".891" gradientUnits="objectBoundingBox">
            <stop offset="0" stop-color="#9becff"/>
            <stop offset=".182" stop-color="#86bdfa"/>
            <stop offset="1" stop-color="#738be5"/>
        </linearGradient>
    </defs>
    <g>
        <path fill="url(#hs6qmu6wga)" d="M915.009 303.2a.249.249 0 0 0-.06-.1v-.032a.253.253 0 0 0-.125-.155L895.446 291.6l-.048-.029a.241.241 0 0 0-.1-.027h-9.057a.2.2 0 0 0-.041.008l-.018.007a.278.278 0 0 0-.046.023h-.007a.239.239 0 0 0-.041.037.215.215 0 0 0-.04.067l-.007.019a.254.254 0 0 0-.014.077v.034l.03.215 4.628 33.831.039.284.023.17a.246.246 0 0 0 .058.124l.013.016a.253.253 0 0 0 .113.064l.008.005h.016a.24.24 0 0 0 .037.006h9.05a.243.243 0 0 0 .07-.016.267.267 0 0 0 .064-.035l.015-.011a.191.191 0 0 0 .028-.022.21.21 0 0 0 .02-.036l14.636-22.852h.014v-.021l.1-.155a.246.246 0 0 0 .02-.183zm-16.873 11.258l-3.392 5.285-3.363-24.583 4.473 2.622zm.429-.669l-2.145-15.675 8.87 5.2zm.129.937l7.142-11.152h3.543l-10.065 15.683zm-2.94-17.678l-4.472-2.61-.311-2.275h4.115zm-.881 23.642l3.391-5.294.619 4.53-3.391 5.285zm10.972-17.75a.384.384 0 0 0-.043-.028l-9.482-5.533-.687-5.02 18.057 10.582z" transform="translate(-1053.763 -578) translate(171.744 287.457)"/>
    </g>
</svg>
