<svg xmlns="http://www.w3.org/2000/svg" xmlns:xlink="http://www.w3.org/1999/xlink" width="38" height="38" viewBox="0 0 38 38">
    <defs>
        <linearGradient id="1w0l9rynsb" x1=".5" x2=".5" y1="-.016" y2=".585" gradientUnits="objectBoundingBox">
            <stop offset="0" stop-color="#9ceeff"/>
            <stop offset=".106" stop-color="#96e6fe"/>
            <stop offset="1" stop-color="#738be5"/>
        </linearGradient>
        <linearGradient id="oyoa9raaea" x1=".5" x2=".5" y1="-.888" y2="2.113" gradientUnits="objectBoundingBox">
            <stop offset=".005" stop-color="#86bdfa"/>
            <stop offset="1" stop-color="#738be5" stop-opacity=".698"/>
        </linearGradient>
        <linearGradient id="ks5b841pcc" x1=".5" x2=".5" y1="-.634" y2=".846" gradientUnits="objectBoundingBox">
            <stop offset=".005" stop-color="#86bdfa"/>
            <stop offset="1" stop-color="#738be5"/>
        </linearGradient>
        <linearGradient id="el0qtylttd" x1=".5" x2=".5" y1="-3.056" y2="1.21" xlink:href="#oyoa9raaea"/>
    </defs>
    <g>
        <path fill="url(#1w0l9rynsb)" d="M610.269 292.111h-23.4a5.329 5.329 0 0 0-5.352 5.292v21.415a5.329 5.329 0 0 0 5.352 5.292h23.4a5.328 5.328 0 0 0 5.352-5.292V297.4a5.328 5.328 0 0 0-5.352-5.289zm-24.282 4.314h24.282a3.94 3.94 0 0 1 3.957 3.914v18.48a3.94 3.94 0 0 1-3.957 3.913h-23.4a3.94 3.94 0 0 1-3.957-3.913V297.4a3.94 3.94 0 0 1 3.957-3.914h23.4a3.947 3.947 0 0 1 3.887 3.222 5.362 5.362 0 0 0-3.887-1.665h-24.281a.689.689 0 1 0 0 1.378z" transform="translate(-755.258 -577.179) translate(174.744 288.067)"/>
        <path fill="url(#oyoa9raaea)" d="M618.433 302.533a3.422 3.422 0 0 0-2.893-3.371v1.417a2.023 2.023 0 0 1 0 3.909v1.412a3.422 3.422 0 0 0 2.893-3.367z" transform="translate(-755.258 -577.179) translate(174.825 287.991)"/>
        <path fill="url(#ks5b841pcc)" d="M617.738 301.838a.7.7 0 0 0-.7.7 2.036 2.036 0 0 1-2.033 2.034h-7.23a5.682 5.682 0 0 0-.922.082l-.091.015a5.372 5.372 0 0 0-.8.215l-.145.053a5.58 5.58 0 0 0-.736.344l-.1.062a5.551 5.551 0 0 0-1.318 1.1l-.055.061a5.475 5.475 0 0 0-.478.66l-.07.115a5.377 5.377 0 0 0-.363.735l-.041.108a5.421 5.421 0 0 0-.246.84 5.549 5.549 0 0 0-.109 1.088 5.479 5.479 0 0 0 5.473 5.472h5.144a5.513 5.513 0 0 0 5.51-5.51v-7.469a.7.7 0 0 0-.69-.705zm-.7 8.165a4.119 4.119 0 0 1-2.476 3.776 4.077 4.077 0 0 1-1.643.343h-5.144a4.085 4.085 0 0 1-4-4.894 4.156 4.156 0 0 1 .184-.625l.029-.078a3.984 3.984 0 0 1 .276-.556l.049-.081a4.056 4.056 0 0 1 .352-.486l.058-.064a4.128 4.128 0 0 1 .971-.8l.076-.047a4.058 4.058 0 0 1 .551-.256l.105-.039a4.038 4.038 0 0 1 .594-.16l.091-.014a4.126 4.126 0 0 1 .665-.06h7.23a3.4 3.4 0 0 0 2.033-.671z" transform="translate(-755.258 -577.179) translate(174.825 287.923)"/>
        <path fill="#fff" d="M617.042 310a4.119 4.119 0 0 1-2.476 3.776 4.077 4.077 0 0 1-1.643.343h-5.144a4.085 4.085 0 0 1-4-4.894 4.156 4.156 0 0 1 .184-.625l.029-.078a3.984 3.984 0 0 1 .276-.556l.049-.081a4.056 4.056 0 0 1 .352-.486l.058-.064a4.128 4.128 0 0 1 .971-.8l.076-.047a4.058 4.058 0 0 1 .551-.256l.105-.039a4.038 4.038 0 0 1 .594-.16l.091-.014a4.126 4.126 0 0 1 .665-.06h7.23a3.4 3.4 0 0 0 2.033-.671z" transform="translate(-755.258 -577.179) translate(174.825 287.912)"/>
        <path fill="url(#el0qtylttd)" d="M607.964 312.412a2.372 2.372 0 1 1 2.372-2.371 2.374 2.374 0 0 1-2.372 2.371zm0-3.353a.982.982 0 1 0 .982.982.982.982 0 0 0-.982-.982z" transform="translate(-755.258 -577.179) translate(174.805 287.911)"/>
    </g>
</svg>
